<mxfile host="app.diagrams.net" modified="2023-09-26T00:40:02.661Z" agent="Mozilla/5.0 (Macintosh; Intel Mac OS X 10_15_7) AppleWebKit/537.36 (KHTML, like Gecko) Chrome/117.0.0.0 Safari/537.36" version="21.7.1" etag="g_bfXUPj006o0eViCoAT" type="github">
  <diagram name="第 1 页" id="2IL57t0LmK6_t88ItIx6">
    <mxGraphModel>
      <root>
        <mxCell id="0" />
        <mxCell id="1" parent="0" />
      </root>
    </mxGraphModel>
  </diagram>
</mxfile>
